<mxfile host="app.diagrams.net" agent="Mozilla/5.0 (Windows NT 10.0; Win64; x64) AppleWebKit/537.36 (KHTML, like Gecko) Chrome/131.0.0.0 Safari/537.36" version="25.0.1">
  <diagram name="Page-1" id="XxGBwA8hfzoIfB4aXam7">
    <mxGraphModel dx="1697" dy="1125" grid="0" gridSize="10" guides="1" tooltips="1" connect="1" arrows="1" fold="1" page="1" pageScale="1" pageWidth="700" pageHeight="1000" background="#ffffff" math="0" shadow="1">
      <root>
        <mxCell id="0" />
        <mxCell id="1" parent="0" />
        <mxCell id="OKiee_rYJw-JIQHx1byR-1" style="edgeStyle=orthogonalEdgeStyle;rounded=0;orthogonalLoop=1;jettySize=auto;html=1;exitX=0.5;exitY=0;exitDx=0;exitDy=0;entryX=0.5;entryY=1;entryDx=0;entryDy=0;" parent="1" source="OKiee_rYJw-JIQHx1byR-2" target="OKiee_rYJw-JIQHx1byR-34" edge="1">
          <mxGeometry relative="1" as="geometry" />
        </mxCell>
        <mxCell id="OKiee_rYJw-JIQHx1byR-2" value="" style="rounded=1;whiteSpace=wrap;html=1;fillColor=#f5f5f5;strokeColor=#000000;fontColor=#333333;" parent="1" vertex="1">
          <mxGeometry x="569" y="511" width="260" height="850" as="geometry" />
        </mxCell>
        <mxCell id="OKiee_rYJw-JIQHx1byR-3" value="" style="rounded=1;whiteSpace=wrap;html=1;fillColor=#f5e1e0;strokeColor=#000000;" parent="1" vertex="1">
          <mxGeometry x="889" y="871" width="180" height="160" as="geometry" />
        </mxCell>
        <mxCell id="OKiee_rYJw-JIQHx1byR-4" value="" style="rounded=1;whiteSpace=wrap;html=1;fillColor=#ddebfd;strokeColor=#000000;" parent="1" vertex="1">
          <mxGeometry x="299" y="911" width="200" height="400" as="geometry" />
        </mxCell>
        <mxCell id="OKiee_rYJw-JIQHx1byR-5" style="edgeStyle=orthogonalEdgeStyle;rounded=0;orthogonalLoop=1;jettySize=auto;html=1;exitX=0.5;exitY=0;exitDx=0;exitDy=0;entryX=0.5;entryY=1;entryDx=0;entryDy=0;" parent="1" source="OKiee_rYJw-JIQHx1byR-6" target="OKiee_rYJw-JIQHx1byR-2" edge="1">
          <mxGeometry relative="1" as="geometry" />
        </mxCell>
        <mxCell id="OKiee_rYJw-JIQHx1byR-6" value="&lt;font style=&quot;font-size: 20px;&quot;&gt;Input&lt;/font&gt;" style="rounded=1;whiteSpace=wrap;html=1;fillColor=#f8cecc;strokeColor=#000000;" parent="1" vertex="1">
          <mxGeometry x="614" y="1411" width="170" height="50" as="geometry" />
        </mxCell>
        <mxCell id="OKiee_rYJw-JIQHx1byR-7" value="&lt;font style=&quot;font-size: 20px;&quot;&gt;Plot&lt;/font&gt;" style="rounded=1;whiteSpace=wrap;html=1;fillColor=#ffe6cc;strokeColor=#000000;" parent="1" vertex="1">
          <mxGeometry x="612" y="611" width="175" height="50" as="geometry" />
        </mxCell>
        <mxCell id="OKiee_rYJw-JIQHx1byR-8" style="edgeStyle=orthogonalEdgeStyle;rounded=0;orthogonalLoop=1;jettySize=auto;html=1;exitX=0.5;exitY=0;exitDx=0;exitDy=0;" parent="1" source="OKiee_rYJw-JIQHx1byR-9" target="OKiee_rYJw-JIQHx1byR-7" edge="1">
          <mxGeometry relative="1" as="geometry" />
        </mxCell>
        <mxCell id="OKiee_rYJw-JIQHx1byR-9" value="&lt;font style=&quot;font-size: 20px;&quot;&gt;Predict&lt;/font&gt;" style="rounded=1;whiteSpace=wrap;html=1;fillColor=#dae8fc;strokeColor=#000000;" parent="1" vertex="1">
          <mxGeometry x="612" y="731" width="175" height="50" as="geometry" />
        </mxCell>
        <mxCell id="OKiee_rYJw-JIQHx1byR-10" style="edgeStyle=orthogonalEdgeStyle;rounded=0;orthogonalLoop=1;jettySize=auto;html=1;exitX=0.5;exitY=0;exitDx=0;exitDy=0;" parent="1" source="OKiee_rYJw-JIQHx1byR-46" target="OKiee_rYJw-JIQHx1byR-9" edge="1">
          <mxGeometry relative="1" as="geometry" />
        </mxCell>
        <mxCell id="OKiee_rYJw-JIQHx1byR-11" value="&lt;font style=&quot;font-size: 20px;&quot;&gt;Train&lt;/font&gt;" style="rounded=1;whiteSpace=wrap;html=1;fillColor=#d5e8d4;strokeColor=#000000;" parent="1" vertex="1">
          <mxGeometry x="611.5" y="941" width="175" height="50" as="geometry" />
        </mxCell>
        <mxCell id="OKiee_rYJw-JIQHx1byR-12" value="" style="rounded=1;whiteSpace=wrap;html=1;fillColor=#fff2cc;strokeColor=#000000;" parent="1" vertex="1">
          <mxGeometry x="299" y="508.5" width="200" height="272.5" as="geometry" />
        </mxCell>
        <mxCell id="OKiee_rYJw-JIQHx1byR-13" style="edgeStyle=orthogonalEdgeStyle;rounded=0;orthogonalLoop=1;jettySize=auto;html=1;exitX=0.5;exitY=0;exitDx=0;exitDy=0;" parent="1" source="OKiee_rYJw-JIQHx1byR-14" target="OKiee_rYJw-JIQHx1byR-11" edge="1">
          <mxGeometry relative="1" as="geometry" />
        </mxCell>
        <mxCell id="OKiee_rYJw-JIQHx1byR-14" value="&lt;font style=&quot;font-size: 20px;&quot;&gt;LSTM Model&lt;/font&gt;" style="rounded=1;whiteSpace=wrap;html=1;fillColor=#e1d5e7;strokeColor=#000000;" parent="1" vertex="1">
          <mxGeometry x="611.5" y="1051" width="175" height="50" as="geometry" />
        </mxCell>
        <mxCell id="OKiee_rYJw-JIQHx1byR-15" style="edgeStyle=orthogonalEdgeStyle;rounded=0;orthogonalLoop=1;jettySize=auto;html=1;exitX=0.5;exitY=0;exitDx=0;exitDy=0;entryX=0.5;entryY=1;entryDx=0;entryDy=0;" parent="1" source="OKiee_rYJw-JIQHx1byR-16" target="OKiee_rYJw-JIQHx1byR-14" edge="1">
          <mxGeometry relative="1" as="geometry" />
        </mxCell>
        <mxCell id="OKiee_rYJw-JIQHx1byR-16" value="&lt;font style=&quot;font-size: 20px;&quot;&gt;Sequence Creator&lt;/font&gt;" style="rounded=1;whiteSpace=wrap;html=1;fillColor=#f8cecc;strokeColor=#000000;" parent="1" vertex="1">
          <mxGeometry x="611.5" y="1161" width="175" height="50" as="geometry" />
        </mxCell>
        <mxCell id="OKiee_rYJw-JIQHx1byR-17" style="edgeStyle=orthogonalEdgeStyle;rounded=0;orthogonalLoop=1;jettySize=auto;html=1;exitX=0.5;exitY=0;exitDx=0;exitDy=0;" parent="1" source="OKiee_rYJw-JIQHx1byR-18" target="OKiee_rYJw-JIQHx1byR-16" edge="1">
          <mxGeometry relative="1" as="geometry" />
        </mxCell>
        <mxCell id="OKiee_rYJw-JIQHx1byR-18" value="&lt;font style=&quot;font-size: 20px;&quot;&gt;Encoder&lt;/font&gt;" style="rounded=1;whiteSpace=wrap;html=1;fillColor=#ffe6cc;strokeColor=#000000;" parent="1" vertex="1">
          <mxGeometry x="611.5" y="1271" width="175" height="50" as="geometry" />
        </mxCell>
        <mxCell id="OKiee_rYJw-JIQHx1byR-19" value="&lt;font style=&quot;font-size: 20px;&quot;&gt;Evaluate&lt;/font&gt;" style="rounded=1;whiteSpace=wrap;html=1;fillColor=#dae8fc;strokeColor=#000000;" parent="1" vertex="1">
          <mxGeometry x="906.5" y="891" width="142.5" height="35" as="geometry" />
        </mxCell>
        <mxCell id="OKiee_rYJw-JIQHx1byR-20" style="edgeStyle=orthogonalEdgeStyle;rounded=0;orthogonalLoop=1;jettySize=auto;html=1;exitX=0.5;exitY=0;exitDx=0;exitDy=0;entryX=0.5;entryY=1;entryDx=0;entryDy=0;" parent="1" source="OKiee_rYJw-JIQHx1byR-21" target="OKiee_rYJw-JIQHx1byR-19" edge="1">
          <mxGeometry relative="1" as="geometry" />
        </mxCell>
        <mxCell id="OKiee_rYJw-JIQHx1byR-21" value="&lt;font style=&quot;font-size: 20px;&quot;&gt;Decoder&lt;/font&gt;" style="rounded=1;whiteSpace=wrap;html=1;fillColor=#d5e8d4;strokeColor=#000000;" parent="1" vertex="1">
          <mxGeometry x="906.5" y="971" width="142.5" height="35" as="geometry" />
        </mxCell>
        <mxCell id="OKiee_rYJw-JIQHx1byR-22" value="&lt;font style=&quot;font-size: 20px;&quot;&gt;Plot&lt;/font&gt;&lt;div&gt;&lt;font style=&quot;font-size: 20px;&quot;&gt;Actual vs Pred&lt;/font&gt;&lt;/div&gt;" style="rounded=1;whiteSpace=wrap;html=1;fillColor=#d5e8d4;strokeColor=#000000;" parent="1" vertex="1">
          <mxGeometry x="317.75" y="538.5" width="162.5" height="50" as="geometry" />
        </mxCell>
        <mxCell id="OKiee_rYJw-JIQHx1byR-23" value="&lt;font style=&quot;font-size: 20px;&quot;&gt;Plot loss&lt;/font&gt;" style="rounded=1;whiteSpace=wrap;html=1;fillColor=#f8cecc;strokeColor=#000000;" parent="1" vertex="1">
          <mxGeometry x="321.5" y="636" width="155" height="35" as="geometry" />
        </mxCell>
        <mxCell id="OKiee_rYJw-JIQHx1byR-24" style="edgeStyle=orthogonalEdgeStyle;rounded=0;orthogonalLoop=1;jettySize=auto;html=1;exitX=0.5;exitY=0;exitDx=0;exitDy=0;entryX=0.5;entryY=1;entryDx=0;entryDy=0;" parent="1" source="OKiee_rYJw-JIQHx1byR-25" target="OKiee_rYJw-JIQHx1byR-27" edge="1">
          <mxGeometry relative="1" as="geometry" />
        </mxCell>
        <mxCell id="OKiee_rYJw-JIQHx1byR-25" value="&lt;font style=&quot;font-size: 20px;&quot;&gt;LSTM Layer 1&lt;/font&gt;" style="rounded=1;whiteSpace=wrap;html=1;fillColor=#d5e8d4;strokeColor=#000000;" parent="1" vertex="1">
          <mxGeometry x="321.5" y="1243.5" width="155" height="35" as="geometry" />
        </mxCell>
        <mxCell id="OKiee_rYJw-JIQHx1byR-26" style="edgeStyle=orthogonalEdgeStyle;rounded=0;orthogonalLoop=1;jettySize=auto;html=1;exitX=0.5;exitY=0;exitDx=0;exitDy=0;entryX=0.5;entryY=1;entryDx=0;entryDy=0;" parent="1" source="OKiee_rYJw-JIQHx1byR-27" target="OKiee_rYJw-JIQHx1byR-29" edge="1">
          <mxGeometry relative="1" as="geometry" />
        </mxCell>
        <mxCell id="OKiee_rYJw-JIQHx1byR-27" value="&lt;span style=&quot;font-size: 20px;&quot;&gt;LSTM&amp;nbsp;&lt;/span&gt;&lt;span style=&quot;font-size: 20px;&quot;&gt;Layer 2&lt;/span&gt;" style="rounded=1;whiteSpace=wrap;html=1;fillColor=#e1d5e7;strokeColor=#000000;" parent="1" vertex="1">
          <mxGeometry x="321.5" y="1168.5" width="155" height="35" as="geometry" />
        </mxCell>
        <mxCell id="OKiee_rYJw-JIQHx1byR-28" style="edgeStyle=orthogonalEdgeStyle;rounded=0;orthogonalLoop=1;jettySize=auto;html=1;exitX=0.5;exitY=0;exitDx=0;exitDy=0;entryX=0.5;entryY=1;entryDx=0;entryDy=0;" parent="1" source="OKiee_rYJw-JIQHx1byR-29" target="OKiee_rYJw-JIQHx1byR-32" edge="1">
          <mxGeometry relative="1" as="geometry" />
        </mxCell>
        <mxCell id="OKiee_rYJw-JIQHx1byR-29" value="&lt;font style=&quot;font-size: 20px;&quot;&gt;Dense Layer 1&lt;/font&gt;" style="rounded=1;whiteSpace=wrap;html=1;fillColor=#fff2cc;strokeColor=#000000;" parent="1" vertex="1">
          <mxGeometry x="321.5" y="1091" width="155" height="35" as="geometry" />
        </mxCell>
        <mxCell id="OKiee_rYJw-JIQHx1byR-31" value="&lt;span style=&quot;font-size: 20px;&quot;&gt;Dense Layer 2&lt;/span&gt;" style="rounded=1;whiteSpace=wrap;html=1;fillColor=#fff2cc;strokeColor=#000000;" parent="1" vertex="1">
          <mxGeometry x="321.5" y="944" width="155" height="35" as="geometry" />
        </mxCell>
        <mxCell id="OKiee_rYJw-JIQHx1byR-32" value="&lt;span style=&quot;font-size: 20px;&quot;&gt;Dropout Layer&lt;/span&gt;" style="rounded=1;whiteSpace=wrap;html=1;fillColor=#f8cecc;strokeColor=#000000;" parent="1" vertex="1">
          <mxGeometry x="321.5" y="1016" width="155" height="35" as="geometry" />
        </mxCell>
        <mxCell id="OKiee_rYJw-JIQHx1byR-33" style="edgeStyle=orthogonalEdgeStyle;rounded=0;orthogonalLoop=1;jettySize=auto;html=1;exitX=0.5;exitY=1;exitDx=0;exitDy=0;" parent="1" source="OKiee_rYJw-JIQHx1byR-4" target="OKiee_rYJw-JIQHx1byR-4" edge="1">
          <mxGeometry relative="1" as="geometry" />
        </mxCell>
        <mxCell id="OKiee_rYJw-JIQHx1byR-34" value="&lt;span style=&quot;font-size: 20px;&quot;&gt;Output&lt;/span&gt;" style="rounded=1;whiteSpace=wrap;html=1;fillColor=#dae8fc;strokeColor=#000000;" parent="1" vertex="1">
          <mxGeometry x="614" y="401" width="170" height="50" as="geometry" />
        </mxCell>
        <mxCell id="OKiee_rYJw-JIQHx1byR-35" value="" style="endArrow=none;html=1;rounded=0;exitX=0.965;exitY=0.026;exitDx=0;exitDy=0;entryX=0.027;entryY=0.021;entryDx=0;entryDy=0;entryPerimeter=0;exitPerimeter=0;" parent="1" source="OKiee_rYJw-JIQHx1byR-4" target="OKiee_rYJw-JIQHx1byR-14" edge="1">
          <mxGeometry width="50" height="50" relative="1" as="geometry">
            <mxPoint x="529" y="961" as="sourcePoint" />
            <mxPoint x="579" y="911" as="targetPoint" />
          </mxGeometry>
        </mxCell>
        <mxCell id="OKiee_rYJw-JIQHx1byR-36" value="" style="endArrow=none;html=1;rounded=0;exitX=0.973;exitY=0.969;exitDx=0;exitDy=0;exitPerimeter=0;entryX=0.031;entryY=0.99;entryDx=0;entryDy=0;entryPerimeter=0;" parent="1" source="OKiee_rYJw-JIQHx1byR-4" target="OKiee_rYJw-JIQHx1byR-14" edge="1">
          <mxGeometry width="50" height="50" relative="1" as="geometry">
            <mxPoint x="487" y="1307" as="sourcePoint" />
            <mxPoint x="616" y="1098" as="targetPoint" />
          </mxGeometry>
        </mxCell>
        <mxCell id="OKiee_rYJw-JIQHx1byR-37" value="" style="endArrow=none;html=1;rounded=0;exitX=0.968;exitY=0.014;exitDx=0;exitDy=0;entryX=0.079;entryY=0.014;entryDx=0;entryDy=0;entryPerimeter=0;exitPerimeter=0;" parent="1" source="OKiee_rYJw-JIQHx1byR-11" target="OKiee_rYJw-JIQHx1byR-3" edge="1">
          <mxGeometry width="50" height="50" relative="1" as="geometry">
            <mxPoint x="839" y="921" as="sourcePoint" />
            <mxPoint x="889" y="871" as="targetPoint" />
          </mxGeometry>
        </mxCell>
        <mxCell id="OKiee_rYJw-JIQHx1byR-38" value="" style="endArrow=none;html=1;rounded=0;exitX=0.97;exitY=0.994;exitDx=0;exitDy=0;exitPerimeter=0;entryX=0.095;entryY=0.993;entryDx=0;entryDy=0;entryPerimeter=0;" parent="1" source="OKiee_rYJw-JIQHx1byR-11" target="OKiee_rYJw-JIQHx1byR-3" edge="1">
          <mxGeometry width="50" height="50" relative="1" as="geometry">
            <mxPoint x="889" y="1001" as="sourcePoint" />
            <mxPoint x="939" y="951" as="targetPoint" />
          </mxGeometry>
        </mxCell>
        <mxCell id="OKiee_rYJw-JIQHx1byR-39" value="" style="endArrow=none;html=1;rounded=0;exitX=0.021;exitY=0.021;exitDx=0;exitDy=0;exitPerimeter=0;entryX=0.957;entryY=0.033;entryDx=0;entryDy=0;entryPerimeter=0;" parent="1" source="OKiee_rYJw-JIQHx1byR-7" target="OKiee_rYJw-JIQHx1byR-12" edge="1">
          <mxGeometry width="50" height="50" relative="1" as="geometry">
            <mxPoint x="829" y="881" as="sourcePoint" />
            <mxPoint x="519" y="671" as="targetPoint" />
          </mxGeometry>
        </mxCell>
        <mxCell id="OKiee_rYJw-JIQHx1byR-40" value="" style="endArrow=none;html=1;rounded=0;entryX=0.03;entryY=0.984;entryDx=0;entryDy=0;entryPerimeter=0;exitX=0.964;exitY=0.959;exitDx=0;exitDy=0;exitPerimeter=0;" parent="1" source="OKiee_rYJw-JIQHx1byR-12" target="OKiee_rYJw-JIQHx1byR-7" edge="1">
          <mxGeometry width="50" height="50" relative="1" as="geometry">
            <mxPoint x="478" y="861" as="sourcePoint" />
            <mxPoint x="559" y="771" as="targetPoint" />
          </mxGeometry>
        </mxCell>
        <mxCell id="OKiee_rYJw-JIQHx1byR-41" value="&lt;span style=&quot;font-size: 20px;&quot;&gt;&lt;b&gt;VLSTM&lt;/b&gt;&lt;/span&gt;" style="text;html=1;align=center;verticalAlign=middle;whiteSpace=wrap;rounded=0;" parent="1" vertex="1">
          <mxGeometry x="669" y="548.5" width="60" height="30" as="geometry" />
        </mxCell>
        <mxCell id="OKiee_rYJw-JIQHx1byR-42" value="&lt;span style=&quot;font-size: 20px;&quot;&gt;&lt;font color=&quot;#000000&quot;&gt;Plot Metrics&lt;/font&gt;&lt;/span&gt;" style="rounded=1;whiteSpace=wrap;html=1;fillColor=#a9c3db;strokeColor=#000000;fontColor=#ffffff;" parent="1" vertex="1">
          <mxGeometry x="321.5" y="718.5" width="155" height="35" as="geometry" />
        </mxCell>
        <mxCell id="OKiee_rYJw-JIQHx1byR-43" style="edgeStyle=orthogonalEdgeStyle;rounded=0;orthogonalLoop=1;jettySize=auto;html=1;exitX=0.5;exitY=0;exitDx=0;exitDy=0;entryX=0.5;entryY=1;entryDx=0;entryDy=0;" parent="1" source="OKiee_rYJw-JIQHx1byR-42" target="OKiee_rYJw-JIQHx1byR-23" edge="1">
          <mxGeometry relative="1" as="geometry">
            <mxPoint x="924" y="528.5" as="sourcePoint" />
            <mxPoint x="399" y="668.5" as="targetPoint" />
          </mxGeometry>
        </mxCell>
        <mxCell id="OKiee_rYJw-JIQHx1byR-44" value="" style="endArrow=classic;html=1;rounded=0;exitX=0.5;exitY=0;exitDx=0;exitDy=0;entryX=0.5;entryY=1;entryDx=0;entryDy=0;" parent="1" source="OKiee_rYJw-JIQHx1byR-23" target="OKiee_rYJw-JIQHx1byR-22" edge="1">
          <mxGeometry width="50" height="50" relative="1" as="geometry">
            <mxPoint x="234" y="538.5" as="sourcePoint" />
            <mxPoint x="284" y="488.5" as="targetPoint" />
          </mxGeometry>
        </mxCell>
        <mxCell id="OKiee_rYJw-JIQHx1byR-45" value="" style="edgeStyle=orthogonalEdgeStyle;rounded=0;orthogonalLoop=1;jettySize=auto;html=1;exitX=0.5;exitY=0;exitDx=0;exitDy=0;" parent="1" source="OKiee_rYJw-JIQHx1byR-11" target="OKiee_rYJw-JIQHx1byR-46" edge="1">
          <mxGeometry relative="1" as="geometry">
            <mxPoint x="699" y="941" as="sourcePoint" />
            <mxPoint x="700" y="781" as="targetPoint" />
          </mxGeometry>
        </mxCell>
        <mxCell id="OKiee_rYJw-JIQHx1byR-46" value="&lt;font style=&quot;font-size: 20px;&quot;&gt;Evaluate&lt;/font&gt;" style="rounded=1;whiteSpace=wrap;html=1;fillColor=#fad9d5;strokeColor=#ae4132;" parent="1" vertex="1">
          <mxGeometry x="612" y="831" width="175" height="50" as="geometry" />
        </mxCell>
        <mxCell id="6ve3e0p1etftkXGksgkd-1" value="" style="endArrow=classic;html=1;rounded=0;entryX=0.5;entryY=1;entryDx=0;entryDy=0;exitX=0.5;exitY=0;exitDx=0;exitDy=0;" edge="1" parent="1" source="OKiee_rYJw-JIQHx1byR-32" target="OKiee_rYJw-JIQHx1byR-31">
          <mxGeometry width="50" height="50" relative="1" as="geometry">
            <mxPoint x="398" y="1011" as="sourcePoint" />
            <mxPoint x="445" y="958" as="targetPoint" />
          </mxGeometry>
        </mxCell>
      </root>
    </mxGraphModel>
  </diagram>
</mxfile>
